<?xml version="1.0" encoding="utf-8"?>
<!-- Generator: Adobe Illustrator 27.5.0, SVG Export Plug-In . SVG Version: 6.00 Build 0)  -->
<svg version="1.1" id="Layer_1" xmlns="http://www.w3.org/2000/svg" xmlns:xlink="http://www.w3.org/1999/xlink" x="0px" y="0px"
	 viewBox="0 0 800 800" style="enable-background:new 0 0 800 800;" xml:space="preserve">
<style type="text/css">
	.st0{fill:#6895B0;}
</style>
<g id="XMLID_801_">
	<path id="XMLID_802_" class="st0" d="M186.2,257.4H25.6c-7.1,0-12.9,5.8-12.9,12.9v515.9c0,7.1,5.8,12.9,12.9,12.9h160.6
		c7.1,0,12.9-5.8,12.9-12.9V270.3C199.1,263.1,193.3,257.4,186.2,257.4z"/>
	<path id="XMLID_803_" class="st0" d="M106,0.9C47.5,0.9,0,48.4,0,106.7c0,58.4,47.5,105.9,106,105.9c58.4,0,105.9-47.5,105.9-105.9
		C211.9,48.4,164.4,0.9,106,0.9z"/>
	<path id="XMLID_804_" class="st0" d="M594.7,244.5c-64.5,0-112.2,27.7-141.1,59.2v-33.5c0-7.1-5.8-12.9-12.9-12.9H286.9
		c-7.1,0-12.9,5.8-12.9,12.9v515.9c0,7.1,5.8,12.9,12.9,12.9h160.3c7.1,0,12.9-5.8,12.9-12.9V530.9c0-86,23.4-119.5,83.3-119.5
		c65.3,0,70.5,53.7,70.5,124v250.8c0,7.1,5.8,12.9,12.9,12.9h160.3c7.1,0,12.9-5.8,12.9-12.9v-283
		C800,375.3,775.6,244.5,594.7,244.5z"/>
</g>
</svg>
